<svg xmlns="http://www.w3.org/2000/svg" width="256" height="32" viewBox="0 0 256 32" fill="none">
  <path
    d="M11.3327 2.66666C8.75535 2.66666 6.66602 4.75599 6.66602 7.33332C6.66602 7.57354 6.6842 7.80951 6.71926 8.03995C4.43183 8.3403 2.66602 10.2973 2.66602 12.6667C2.66602 13.9724 3.20232 15.1529 4.0667 16C3.20232 16.8471 2.66602 18.0276 2.66602 19.3333C2.66602 21.2024 3.76414 22.8139 5.35072 23.5591C5.33878 23.7047 5.33268 23.8517 5.33268 24C5.33268 26.9455 7.7205 29.3333 10.666 29.3333C12.2589 29.3333 13.6888 28.6349 14.666 27.5277V4.06734C13.8189 3.20296 12.6385 2.66666 11.3327 2.66666ZM17.3327 4.06734V27.5277C18.3099 28.6349 19.7397 29.3333 21.3327 29.3333C24.2781 29.3333 26.666 26.9455 26.666 24C26.666 23.8517 26.6599 23.7047 26.648 23.5591C28.2345 22.8139 29.3327 21.2024 29.3327 19.3333C29.3327 18.0276 28.7964 16.8471 27.932 16C28.7964 15.1529 29.3327 13.9724 29.3327 12.6667C29.3327 10.2973 27.5668 8.3403 25.2795 8.03995C25.3145 7.80951 25.3327 7.57354 25.3327 7.33332C25.3327 4.75599 23.2433 2.66666 20.666 2.66666C19.3603 2.66666 18.1797 3.20296 17.3327 4.06734Z"
    fill="#FF2B3A" />
  <path
    d="M44.1722 16.0005L41.3438 13.172L42.758 11.7578L47.0006 16.0005L42.758 20.2431L41.3438 18.8289L44.1722 16.0005Z"
    fill="#CCCCCC" />
  <path
    d="M73.7188 8.284L80.3044 3.16188C80.8352 2.74906 81.5902 2.79607 82.0657 3.27155L86.058 7.26382C86.5336 7.7393 86.5805 8.49442 86.1677 9.0252L81.0469 15.6091C81.4377 17.1935 81.4454 18.8961 80.9932 20.5839C79.7957 25.0529 75.7529 27.9981 71.3361 27.9981C66.6673 27.9981 60.6673 25.9956 57.334 23.9956C62.6404 19.9956 61.3969 17.582 62.0007 15.3289C63.4119 10.0621 68.457 6.98579 73.7188 8.284ZM78.2693 10.7888C78.357 10.8734 78.4432 10.9595 78.5276 11.0471L80.0402 12.5598L83.3401 8.31714L81.0125 5.98945L76.7698 9.2893L78.2693 10.7888Z"
    fill="#FE9A04" />
  <path
    d="M100.172 16.0005L97.3438 13.172L98.758 11.7578L103.001 16.0005L98.758 20.2431L97.3438 18.8289L100.172 16.0005Z"
    fill="#CCCCCC" />
  <path
    d="M115.999 4H139.999C140.736 4 141.333 4.59696 141.333 5.33333V26.6667C141.333 27.4031 140.736 28 139.999 28H115.999C115.263 28 114.666 27.4031 114.666 26.6667V5.33333C114.666 4.59696 115.263 4 115.999 4ZM133.952 20.714L138.666 16L133.952 11.286L132.066 13.1716L134.895 16L132.066 18.8284L133.952 20.714ZM121.104 16L123.932 13.1716L122.047 11.286L117.333 16L122.047 20.714L123.932 18.8284L121.104 16ZM126.992 22.6667L131.845 9.33333H129.007L124.154 22.6667H126.992Z"
    fill="#00BC7E" />
  <path
    d="M156.172 16.0005L153.344 13.172L154.758 11.7578L159.001 16.0005L154.758 20.2431L153.344 18.8289L156.172 16.0005Z"
    fill="#CCCCCC" />
  <path
    d="M175.107 21.2384C174.819 19.9885 174.667 18.6804 174.667 17.3332C174.667 10.5493 178.537 4.75146 184 2.42398C189.463 4.75146 193.333 10.5493 193.333 17.3332C193.333 18.6804 193.181 19.9885 192.893 21.2384L195.587 23.6327C195.827 23.8456 195.881 24.1991 195.716 24.474L192.439 29.9344C192.25 30.2501 191.84 30.3525 191.525 30.1631C191.478 30.1351 191.435 30.1013 191.396 30.0628L188.391 27.0571C188.141 26.8071 187.801 26.6665 187.448 26.6665H180.552C180.199 26.6665 179.86 26.8071 179.61 27.0571L176.604 30.0628C176.343 30.3232 175.921 30.3232 175.661 30.0628C175.622 30.0243 175.589 29.9812 175.561 29.9344L172.284 24.474C172.12 24.1991 172.174 23.8456 172.413 23.6327L175.107 21.2384ZM184 17.3332C185.473 17.3332 186.667 16.1393 186.667 14.6665C186.667 13.1938 185.473 11.9999 184 11.9999C182.527 11.9999 181.333 13.1938 181.333 14.6665C181.333 16.1393 182.527 17.3332 184 17.3332Z"
    fill="#00B2FD" />
  <path
    d="M212.172 16.0005L209.344 13.172L210.758 11.7578L215.001 16.0005L210.758 20.2431L209.344 18.8289L212.172 16.0005Z"
    fill="#CCCCCC" />
  <path
    d="M239.999 29.3333C232.636 29.3333 226.666 23.3637 226.666 16C226.666 8.63619 232.636 2.66666 239.999 2.66666C247.363 2.66666 253.333 8.63619 253.333 16C253.333 23.3637 247.363 29.3333 239.999 29.3333ZM246.426 22.7681C248.216 21.0676 249.333 18.6641 249.333 16C249.333 10.8453 245.154 6.66666 239.999 6.66666C238.585 6.66666 237.244 6.98131 236.043 7.54444L237.342 9.88388C238.156 9.52971 239.055 9.33332 239.999 9.33332C243.681 9.33332 246.666 12.3181 246.666 16H242.666L246.426 22.7681ZM243.956 24.4556L242.656 22.1161C241.842 22.4703 240.944 22.6667 239.999 22.6667C236.317 22.6667 233.333 19.6819 233.333 16H237.333L233.573 9.23182C231.782 10.9324 230.666 13.3359 230.666 16C230.666 21.1547 234.845 25.3333 239.999 25.3333C241.414 25.3333 242.755 25.0187 243.956 24.4556Z"
    fill="#9E4FFE" />
</svg>
