<svg xmlns="http://www.w3.org/2000/svg" width="103" height="36" viewBox="0 0 103 36" fill="none">
  <g opacity="0.8">
    <path fill-rule="evenodd" clip-rule="evenodd"
      d="M11.7209 0C11.107 0 10.1651 0.188372 9.62791 0.418605C9.0907 0.648837 8.27442 1.21395 7.81395 1.67442C7.35349 2.13488 6.78837 2.82558 6.55814 3.2093C6.32791 3.59302 5.82558 4.91163 5.44186 6.13954C5.05814 7.36744 4.74419 9.37674 4.74419 10.6047C4.74419 11.8326 4.93256 13.9047 5.16279 15.2093L5.5814 17.5814L2.93023 18L0.27907 18.4186L0.139535 19.3953L0 20.3721L2.23256 20.6512L4.46512 20.9302L5.44186 22.186C5.97907 22.8767 6.85814 24.0698 7.39535 24.8372L8.37209 26.2326L9.06977 25.814C9.45349 25.5837 9.83023 25.2698 9.90698 25.1163C9.98372 24.9628 10.1093 24.6488 10.186 24.4186C10.2628 24.1884 10.2 23.8116 10.0465 23.5814C9.89302 23.3512 9.45349 22.2837 9.06977 21.2093L8.37209 19.2558L9.76744 18.8372L11.1628 18.4186V19.814C11.1628 20.5814 11.414 22.214 11.7209 23.4419C12.0279 24.6698 12.593 25.9256 12.9767 26.2326C13.3605 26.5395 13.9884 26.7279 14.3721 26.6512C14.7558 26.5744 15.1326 26.1977 15.2093 25.814C15.286 25.4302 15.0349 24.6767 14.6512 24.1395C14.2674 23.6023 13.7651 22.0326 13.5349 20.6512C13.2103 18.7047 13.2731 18.0767 13.814 17.8605C14.1977 17.707 14.8256 17.5186 15.2093 17.4419C15.593 17.3651 15.9698 17.0512 16.0465 16.7442C16.1355 16.3881 15.7822 16.1355 15.0698 16.0465C14.4558 15.9698 13.8279 15.9698 13.6744 16.0465C13.5209 16.1233 13.4581 15.5581 13.5349 14.7907C13.6116 14.0233 13.8628 13.0186 14.093 12.5581C14.3233 12.0977 14.8884 11.093 15.3488 10.3256C15.8093 9.55814 16.3744 8.23954 16.6047 7.39535C16.8349 6.55116 17.086 5.73488 17.1628 5.5814C17.2395 5.42791 17.114 4.61163 16.8837 3.76744C16.6535 2.92326 16.0884 1.85581 15.6279 1.39535C15.1674 0.934884 14.3512 0.432558 13.814 0.27907C13.2767 0.125581 12.3349 0 11.7209 0ZM11.7209 2.09302C12.1814 2.16977 12.9349 2.48372 13.3953 2.7907C13.8558 3.09767 14.4209 3.78837 14.6512 4.32558C14.8814 4.86279 14.8186 6.1814 14.5116 7.25581C14.162 8.47981 13.6928 9.26149 13.2558 9.34884C12.8721 9.42558 12.307 9.80233 12 10.186C11.693 10.5698 11.5047 11.0093 11.5814 11.1628C11.6581 11.3163 11.6581 12.5093 11.5814 13.814L11.4419 16.186L9.76744 16.6047L8.09302 17.0233L7.67442 16.0465C7.44419 15.5093 7.13023 13.8767 6.97674 12.4186C6.82326 10.9605 6.82326 8.88837 6.97674 7.81395C7.13023 6.73954 7.56977 5.23256 7.95349 4.46512C8.33721 3.69767 9.15349 2.8186 9.76744 2.51163C10.3814 2.20465 11.2605 2.01628 11.7209 2.09302ZM21.7674 6.69767C21.307 6.69767 20.8047 7.01163 20.6512 7.39535C20.4977 7.77907 20.4349 9.47442 20.5116 11.1628C20.5884 12.8512 20.714 14.7977 20.7907 15.4884C20.8674 16.1791 20.993 17.3721 21.0698 18.1395C21.1465 18.907 21.3349 20.0372 21.4884 20.6512C21.6419 21.2651 21.9558 22.8977 22.186 24.2791C22.4163 25.6605 22.7302 27.1047 22.8837 27.4884C23.0372 27.8721 23.1 28.2488 23.0233 28.3256C22.9465 28.4023 23.1349 28.5279 23.4419 28.6047C23.7488 28.6814 24.1884 28.493 24.4186 28.186C24.6488 27.8791 24.9 27.5023 24.9767 27.3488C25.0535 27.1954 25.1791 26.5047 25.2558 25.814C25.3326 25.1233 25.5209 23.993 25.6744 23.3023C25.8279 22.6116 26.2047 21.9837 26.5116 21.907C26.8186 21.8302 27.5093 22.3953 28.0465 23.1628C28.5837 23.9302 29.3372 24.8721 29.7209 25.2558C30.1047 25.6395 30.7326 26.0163 31.1163 26.093C31.57 26.1837 32.0579 25.7936 32.5116 24.9767C32.8954 24.286 33.3349 23.4698 33.4884 23.1628C33.6913 22.7567 33.8436 22.8712 34.0465 23.5814C34.2 24.1186 34.5767 24.8721 34.8837 25.2558C35.1907 25.6395 35.6302 26.0163 35.8605 26.093C36.0907 26.1698 36.5302 25.9186 36.8372 25.5349C37.1442 25.1512 37.8349 23.5814 38.3721 22.0465C38.9093 20.5116 39.4744 19.3186 39.6279 19.3953C39.7814 19.4721 40.0954 20.4767 40.3256 21.6279C40.5558 22.7791 41.2465 24.4116 41.8605 25.2558C42.4744 26.1 43.1023 26.7279 43.2558 26.6512C43.4093 26.5744 43.8488 25.9465 44.2326 25.2558C44.6163 24.5651 45.0558 23.2465 45.2093 22.3256C45.3628 21.4047 45.5512 20.5884 45.6279 20.5116C45.7047 20.4349 45.893 21.1884 46.0465 22.186C46.2 23.1837 46.8279 24.6907 47.4419 25.5349C48.0558 26.3791 48.8093 27.1326 49.1163 27.2093C49.4233 27.286 49.9256 26.8465 50.2326 26.2326C50.5395 25.6186 50.9163 24.4884 51.0698 23.7209C51.2233 22.9535 51.6 21.3837 51.907 20.2326C52.214 19.0814 52.8419 17.4488 53.3023 16.6047C53.8194 15.6567 53.9796 14.8563 53.7209 14.5116C53.4198 14.1103 53.1064 14.1494 52.6047 14.6512C52.2209 15.0349 51.4674 16.2279 50.9302 17.3023C50.393 18.3767 49.7651 20.2605 49.5349 21.4884L49.1163 23.7209L48.6977 22.4651C48.4674 21.7744 48.1535 20.0163 48 18.5581C47.8337 16.9769 47.4394 15.6818 47.0233 15.3488C46.6395 15.0419 46.1372 14.9163 45.907 15.0698C45.6767 15.2233 45.3628 15.7256 45.2093 16.186C45.0558 16.6465 44.7419 17.4628 44.5116 18C44.2814 18.5372 43.8419 19.8558 43.5349 20.9302L42.9767 22.8837L42.2791 20.5116C41.8954 19.207 41.5186 17.7 41.4419 17.1628C41.3651 16.6256 41.114 16.0605 40.8837 15.907C40.6535 15.7535 40.214 15.6907 39.907 15.7674C39.6 15.8442 39.0349 16.4721 38.6512 17.1628C38.2674 17.8535 37.5767 19.2349 37.1163 20.2326L36.2791 22.0465L36 20.9302C35.8465 20.3163 35.7209 18.7465 35.7209 17.4419C35.7209 16.1372 35.9093 14.3163 36.1395 13.3953C36.4585 12.1194 36.3921 11.6545 35.8605 11.4419C35.4767 11.2884 34.9744 11.414 34.7442 11.7209C34.514 12.0279 34.1372 12.9698 33.907 13.814C33.6767 14.6581 33.3 16.5419 33.0698 18C32.8395 19.4581 32.4 21.2791 32.093 22.0465L31.5349 23.4419L30.8372 22.4651C30.4535 21.9279 29.7 20.986 29.1628 20.3721C28.6256 19.7581 27.9349 19.193 27.6279 19.1163C27.2481 19.0214 27.382 17.7726 28.0465 15.2093C28.5837 13.1372 28.9605 10.8767 28.8837 10.186C28.7785 9.23972 28.5723 8.96456 28.0465 9.06977C27.6628 9.14651 27.286 9.46047 27.2093 9.76744C27.1326 10.0744 26.7558 11.3302 26.3721 12.5581C25.9884 13.786 25.486 15.4814 25.2558 16.3256C25.0256 17.1698 24.6488 18.6767 24.4186 19.6744L24 21.4884L23.4419 17.8605C23.1349 15.8651 22.8209 13.7302 22.7442 13.1163C22.6674 12.5023 22.6674 11.4349 22.7442 10.7442C22.8209 10.0535 22.8209 8.86047 22.7442 8.09302C22.634 6.98958 22.4294 6.69767 21.7674 6.69767ZM89.4419 6.97674C89.0581 6.97674 88.4302 7.54186 88.0465 8.23256C87.6628 8.92326 87.2233 10.2419 87.0698 11.1628C86.9163 12.0837 86.7279 14.0302 86.6512 15.4884C86.5744 16.9465 86.4488 18.3279 86.3721 18.5581C86.2954 18.7884 86.107 18.6 85.9535 18.1395C85.7408 17.5013 85.4422 17.3687 84.6977 17.5814C84.0921 17.7544 83.2967 18.6025 82.6047 19.814C81.9907 20.8884 81.2372 22.2698 80.9302 22.8837C80.6012 23.5418 80.2577 23.8281 80.093 23.5814C79.9395 23.3512 79.6884 22.1581 79.5349 20.9302C79.3814 19.7023 79.3814 18.5093 79.5349 18.2791C79.6884 18.0488 79.8767 17.1698 79.9535 16.3256C80.0302 15.4814 79.9047 14.6651 79.6744 14.5116C79.4442 14.3581 78.8791 14.3581 78.4186 14.5116C77.952 14.6671 77.4578 15.2849 77.3023 15.907C77.1488 16.5209 76.8977 17.8395 76.7442 18.8372C76.5907 19.8349 75.9628 21.4047 75.3488 22.3256L74.2326 24L73.6744 22.7442C73.3674 22.0535 72.9907 20.4209 72.8372 19.1163C72.6837 17.8116 72.7465 15.9907 72.9767 15.0698C73.207 14.1488 73.5837 12.9558 73.814 12.4186L74.2326 11.4419L77.1628 11.1628C78.7744 11.0093 80.407 10.9465 80.7907 11.0233C81.2573 11.1165 81.5807 10.8393 81.7674 10.186L82.0465 9.2093L79.814 9.06977C78.5861 8.99302 77.0163 8.99302 76.3256 9.06977C75.3318 9.18028 75.0407 9.03461 74.9302 8.37209C74.8535 7.91163 74.5395 7.47209 74.2326 7.39535C73.9256 7.31861 73.4233 7.44419 73.1163 7.67442C72.8093 7.90465 72.4326 8.40698 72.2791 8.7907C72.1005 9.23721 71.4977 9.48837 70.6047 9.48837C69.8372 9.48837 68.8326 9.42558 68.3721 9.34884C67.9116 9.27209 66.907 9.39767 66.1395 9.62791C65.2069 9.90781 64.6979 10.3242 64.6047 10.8837C64.5226 11.376 64.7526 11.8359 65.1628 12C65.5465 12.1535 66.4884 12.2791 67.2558 12.2791C68.0233 12.2791 69.0907 12.1535 69.6279 12C70.1651 11.8465 70.8558 11.6581 71.1628 11.5814C71.5348 11.4885 71.5348 12 71.1628 13.1163C70.8558 14.0372 70.4791 15.4186 70.3256 16.186C70.1721 16.9535 69.8581 17.8953 69.6279 18.2791C69.3977 18.6628 69.0837 19.3535 68.9302 19.814C68.7555 20.3378 68.2334 20.7033 67.5349 20.7907C66.9209 20.8674 65.7907 20.6791 65.0233 20.3721C64.2558 20.0651 63.5651 19.5 63.4884 19.1163C63.4108 18.7284 63.7825 18.1088 64.3256 17.7209C64.8628 17.3372 65.4279 17.086 65.5814 17.1628C65.7349 17.2395 66.0488 17.4279 66.2791 17.5814C66.5093 17.7349 66.886 17.7977 67.1163 17.7209C67.3465 17.6442 67.6605 17.1419 67.814 16.6047C68.0118 15.912 67.8494 15.4655 67.2558 15.0698C66.7954 14.7628 65.9791 14.5744 65.4419 14.6512C64.9047 14.7279 63.8372 15.1674 63.0698 15.6279L61.6744 16.4651L61.3954 15.6279C61.2419 15.1674 60.8023 14.6651 60.4186 14.5116C60.0349 14.3581 59.5326 14.1698 59.3023 14.093C59.0721 14.0163 58.4442 14.1419 57.907 14.3721C57.3698 14.6023 56.3023 15.3558 55.5349 16.0465C54.7674 16.7372 53.8884 17.8047 53.5814 18.4186C53.2744 19.0326 52.9605 19.9744 52.8837 20.5116C52.807 21.0488 53.1209 22.4302 53.5814 23.5814C54.0419 24.7326 54.607 25.8 54.8372 25.9535C55.0674 26.107 55.6954 26.5465 56.2326 26.9302C56.7698 27.314 57.5233 27.6907 57.907 27.7674C58.2907 27.8442 59.0442 27.6558 59.5814 27.3488C60.1186 27.0419 60.8721 26.1628 61.2558 25.3954C61.6395 24.6279 62.0791 23.4977 62.2326 22.8837L62.5116 21.7674L63.2093 22.186C63.593 22.4163 64.0954 22.6674 64.3256 22.7442C64.5558 22.8209 64.9954 22.8209 65.3023 22.7442C65.6093 22.6674 66.1116 22.9186 66.4186 23.3023C66.7256 23.686 66.8512 24.2512 66.6977 24.5581C66.5442 24.8651 66.3558 25.3674 66.2791 25.6744C66.2023 25.9814 66.3907 26.5465 66.6977 26.9302C67.0287 27.3441 67.7668 27.5713 68.5116 27.4884C69.2023 27.4116 69.9558 27.0349 70.186 26.6512C70.4163 26.2674 70.6674 25.3884 70.7442 24.6977L70.8837 23.4419L71.3023 24.1395C71.5326 24.5233 71.9721 25.214 72.2791 25.6744C72.5861 26.1349 73.0256 26.5744 73.2558 26.6512C73.4861 26.7279 74.114 26.4767 74.6512 26.093C75.1884 25.7093 75.8791 24.9558 76.1861 24.4186C76.493 23.8814 76.8698 23.3163 77.0233 23.1628C77.1767 23.0093 77.4907 23.5116 77.7209 24.2791C77.9512 25.0465 78.4535 25.9256 78.8372 26.2326C79.2209 26.5395 79.5977 26.7279 79.6744 26.6512C79.7512 26.5744 79.8767 26.5744 79.9535 26.6512C80.0302 26.7279 80.407 26.5395 80.7907 26.2326C81.1744 25.9256 81.7395 25.1721 82.0465 24.5581C82.3535 23.9442 82.8558 22.8767 83.1628 22.186C83.4698 21.4953 83.8465 20.8047 84 20.6512C84.1535 20.4977 84.4674 22.0047 84.6977 24C84.9279 25.9954 85.0535 28.0674 84.9767 28.6047C84.9 29.1419 84.7116 29.8954 84.5581 30.2791C84.4047 30.6628 84.1535 31.6047 84 32.3721C83.8465 33.1395 83.7837 34.207 83.8605 34.7442C83.9651 35.4762 84.2796 35.7558 85.1163 35.8605L86.2326 36L86.9302 34.7442C87.314 34.0535 87.6907 32.7349 87.7674 31.814C87.8442 30.893 87.8442 29.5744 87.7674 28.8837C87.6907 28.193 87.7535 27.2512 87.907 26.7907C88.1127 26.1737 88.3328 26.0634 88.7442 26.3721C89.0512 26.6023 89.4907 26.8535 89.7209 26.9302C89.9512 27.007 90.6419 26.8186 91.2558 26.5116C91.8698 26.2047 92.6861 25.7023 93.0698 25.3954C93.5696 24.9954 94.1629 25.0351 95.1628 25.5349C95.9302 25.9186 96.9349 26.2954 97.3954 26.3721C97.8558 26.4488 98.9861 26.1977 99.907 25.814C100.955 25.3775 101.843 24.6463 102.279 23.8605C102.753 23.0068 102.798 22.56 102.419 22.4651C102.112 22.3884 101.609 22.514 101.302 22.7442C100.995 22.9744 100.43 23.3512 100.047 23.5814C99.6628 23.8116 99.0349 24.0628 98.6512 24.1395C98.2674 24.2163 97.6395 24.0907 97.2558 23.8605C96.8721 23.6302 96.4326 23.0023 96.2791 22.4651C96.1256 21.9279 96.1884 21.1744 96.4186 20.7907C96.6488 20.407 97.0256 19.5907 97.2558 18.9767C97.4861 18.3628 97.7372 17.6093 97.814 17.3023C97.8907 16.9953 97.8279 16.5558 97.6744 16.3256C97.5209 16.0953 96.9558 15.8442 96.4186 15.7674C95.8814 15.6907 95.1907 15.8163 94.8837 16.0465C94.5767 16.2767 94.0744 16.9047 93.7674 17.4419C93.4605 17.9791 93.0837 19.1721 92.9302 20.093C92.7767 21.014 92.714 22.0186 92.7907 22.3256C92.8674 22.6326 92.4907 23.1977 91.9535 23.5814C91.4163 23.9651 90.7256 24.2163 90.4186 24.1395C90.1116 24.0628 89.7349 23.5605 89.5814 23.0233C89.4279 22.486 89.4907 21.3558 89.7209 20.5116C89.9512 19.6674 90.2651 18.4744 90.4186 17.8605C90.5721 17.2465 90.8233 16.2419 90.9767 15.6279C91.1302 15.014 91.3814 13.8837 91.5349 13.1163C91.6884 12.3488 91.8767 11.1558 91.9535 10.4651C92.0302 9.77442 91.9674 9.02093 91.814 8.7907C91.6605 8.56047 91.2209 8.05814 90.8372 7.67442C90.4535 7.2907 89.8256 6.97674 89.4419 6.97674ZM89.8605 10.186C90.014 10.2628 90.014 11.393 89.8605 12.6977C89.707 14.0023 89.393 15.7605 89.1628 16.6047L88.7442 18.1395V16.6047C88.7442 15.7605 88.9326 13.9395 89.1628 12.5581C89.393 11.1767 89.707 10.1093 89.8605 10.186ZM59.4419 16.6047C59.5954 16.6814 59.9093 17.1837 60.1395 17.7209C60.3698 18.2581 60.4954 19.8279 60.4186 21.2093C60.3419 22.5907 60.0907 24.0349 59.8605 24.4186C59.5867 24.8752 59.1042 25.0197 58.4651 24.8372C57.8994 24.6756 57.2534 24.0296 56.9302 23.3023C56.6233 22.6116 56.4977 21.607 56.6512 21.0698C56.8047 20.5326 57.1814 19.5907 57.4884 18.9767C57.7954 18.3628 58.2977 17.5465 58.6047 17.1628C58.9116 16.7791 59.2884 16.5279 59.4419 16.6047ZM18.5581 24.1395C17.9941 24.0589 17.4045 24.2947 17.1628 24.6977C16.9326 25.0814 16.9326 25.6465 17.1628 25.9535C17.393 26.2605 17.9581 26.4488 18.4186 26.3721C18.9561 26.2825 19.3058 25.8829 19.3953 25.2558C19.507 24.4744 19.3395 24.2512 18.5581 24.1395Z"
      fill="#808080" />
  </g>
</svg>
